P2
#
80 80
255
0 10 17 16 14 0 0 1 3 3 0 0 15 8 8 3 0 1 15 17 10 9 27 23 47 117 168 129 94 106 55 36 21 25 23 22 14 8 7 8 9 8 12 13 36 47 31 15 18 15 21 11 15 59 71 48 36 28 47 38 51 81 88 67 24 7 1 3 6 4 5 77 87 87 59 22 24 22 13 8 
0 6 16 16 13 11 0 0 0 0 0 0 8 7 6 2 1 0 11 23 11 44 201 225 213 183 217 241 233 241 240 238 218 192 62 44 48 11 12 11 11 51 105 183 188 194 134 37 53 20 19 58 88 25 43 18 20 46 61 49 35 29 57 24 24 5 6 6 4 6 5 41 101 92 38 16 35 14 9 13 
0 0 13 16 3 6 2 1 2 1 0 0 5 4 1 2 0 15 43 82 197 227 214 192 198 225 238 227 233 222 236 244 232 223 245 250 236 201 181 226 244 251 250 245 247 248 245 246 227 195 184 179 166 14 29 15 17 33 76 61 30 7 1 18 28 6 5 8 4 8 30 18 23 15 12 11 19 23 43 36 
3 0 1 2 1 2 8 3 6 4 1 1 4 2 5 13 39 142 176 198 207 210 196 202 197 235 238 224 209 204 204 196 230 239 242 245 246 246 246 248 246 245 236 226 239 244 245 244 231 242 246 245 211 81 119 104 15 32 59 38 20 1 3 17 26 8 2 3 2 3 24 41 10 6 34 11 9 26 57 46 
4 0 0 4 12 4 6 4 4 2 0 1 8 5 18 119 124 142 156 191 191 160 192 197 208 204 199 194 204 222 218 234 228 230 235 244 239 229 225 237 241 240 244 242 246 239 237 236 239 243 247 235 218 227 233 247 192 38 20 45 31 2 5 21 24 14 7 7 8 3 5 39 45 26 29 12 13 30 41 32 
6 0 0 1 4 0 0 0 0 0 0 4 8 53 106 113 105 121 137 137 138 153 171 179 179 199 194 190 189 202 219 225 224 239 244 245 240 231 243 246 245 243 242 226 219 228 237 241 231 226 233 236 216 208 193 198 206 42 25 53 34 8 2 6 14 18 8 14 17 9 1 1 17 33 22 11 24 35 39 43 
7 6 0 0 0 0 0 4 4 0 0 6 6 98 106 88 77 89 100 126 140 161 161 187 179 173 168 153 179 183 196 203 220 208 215 224 233 224 239 242 234 225 215 212 192 218 228 232 240 234 213 209 215 199 208 210 218 223 180 44 22 14 3 5 19 17 9 18 22 16 3 4 2 13 25 13 37 45 27 48 
19 15 1 0 0 0 0 2 2 1 0 9 12 89 83 74 66 75 83 109 134 149 161 159 153 144 148 153 138 150 178 197 180 171 204 206 217 202 197 211 212 234 228 209 197 212 222 224 225 194 195 206 217 232 217 227 243 248 249 228 78 20 10 16 30 21 7 19 41 69 30 16 25 63 67 42 58 115 83 66 
72 9 0 0 0 0 0 2 0 4 2 4 4 96 68 61 67 50 73 95 109 122 150 126 166 168 189 195 161 172 176 176 165 158 175 188 184 215 216 202 214 234 213 224 190 190 183 190 214 193 200 228 216 242 247 243 244 247 247 247 215 40 18 28 40 27 10 23 68 137 104 66 75 69 63 66 57 79 80 60 
181 28 0 0 0 0 0 0 4 12 9 6 4 76 53 49 66 51 51 69 92 133 146 135 173 200 221 229 231 193 185 174 143 155 174 192 211 210 219 197 210 210 202 187 181 202 180 186 199 185 202 213 198 237 247 248 242 235 237 236 249 215 51 37 44 31 16 31 45 110 122 121 145 134 93 73 58 59 57 51 
26 1 0 0 0 0 2 3 8 6 13 2 15 19 41 99 45 64 50 44 101 176 185 194 198 194 210 215 234 230 210 209 181 177 188 186 204 212 204 187 212 214 191 171 169 183 146 124 126 137 148 167 194 217 235 241 236 229 185 200 214 226 231 66 47 35 40 65 82 152 135 125 168 170 136 62 91 85 31 15 
6 1 0 1 4 13 9 4 1 4 9 8 13 11 133 209 120 50 64 43 108 202 206 208 208 128 47 214 222 225 224 232 214 195 174 166 182 179 176 187 203 205 175 165 181 164 135 142 138 142 172 185 166 154 189 224 233 204 153 193 210 216 237 199 30 17 33 58 65 92 120 111 144 178 151 139 175 133 60 38 
8 4 9 16 19 8 9 8 5 9 7 10 28 17 228 229 214 86 34 34 78 195 211 211 209 181 178 202 224 208 208 228 215 199 185 195 201 189 185 213 205 182 178 179 177 176 179 180 174 187 191 192 180 178 199 178 163 166 164 194 214 222 236 89 34 23 15 29 36 41 67 106 110 126 145 161 140 96 33 17 
6 6 3 8 34 32 21 23 33 23 9 3 10 109 244 232 221 200 52 50 69 172 198 219 217 222 197 212 191 183 211 223 225 208 198 207 199 196 193 204 207 189 192 171 162 172 203 214 205 202 225 236 211 195 165 151 163 172 192 192 198 202 193 87 49 35 16 32 35 30 8 32 80 89 118 130 91 59 10 27 
2 8 4 18 30 50 31 32 31 37 34 18 0 211 236 235 227 220 165 45 94 193 211 214 219 210 209 197 201 224 239 241 225 204 194 194 195 179 175 188 180 162 160 174 191 193 192 202 216 217 210 171 128 108 135 181 174 167 171 160 184 198 199 172 207 181 23 31 38 31 13 24 37 57 81 44 32 76 37 56 
2 7 2 26 38 32 19 23 24 25 40 41 31 243 227 230 230 224 120 52 53 170 192 227 231 231 228 225 226 237 249 240 223 200 188 193 192 176 177 178 193 163 161 168 174 173 181 196 213 207 172 129 114 137 164 187 158 169 169 148 173 204 213 253 254 199 25 27 37 34 16 32 48 49 19 31 109 129 95 145 
5 2 3 1 27 27 18 23 28 7 31 30 58 226 221 229 227 225 122 46 46 118 226 204 219 226 242 240 250 253 237 230 216 191 194 194 188 186 180 207 212 205 182 150 170 168 171 180 165 140 125 118 131 151 179 169 165 185 170 174 160 198 234 245 212 206 218 220 167 54 46 45 39 43 53 66 151 156 160 192 
7 5 6 8 30 27 21 14 12 10 11 24 60 226 218 223 228 224 135 63 67 158 218 219 214 233 231 231 231 235 219 235 214 191 192 190 193 192 200 206 219 218 187 188 191 176 164 135 116 108 103 109 125 139 136 157 164 170 160 177 175 206 232 228 221 242 215 189 148 56 92 77 32 40 76 55 128 149 160 177 
4 2 2 2 8 11 6 2 9 31 16 16 60 208 209 216 216 217 117 81 34 73 183 238 233 224 239 230 238 234 224 222 207 194 194 189 180 192 197 210 217 202 182 203 198 157 136 139 147 163 107 113 115 111 153 177 167 156 172 162 188 215 222 229 230 233 237 213 215 166 163 175 166 61 92 88 110 129 126 89 
3 1 3 9 0 0 0 1 4 23 2 0 38 205 203 210 210 150 59 39 28 29 146 244 245 247 244 243 242 241 239 235 215 207 195 186 179 189 189 191 195 166 145 182 198 158 142 158 178 189 150 115 127 142 165 183 143 141 157 145 201 225 224 228 193 196 223 202 138 157 201 215 231 160 120 123 135 120 83 85 
2 2 7 2 0 0 0 1 0 1 0 0 0 210 196 202 194 126 69 15 19 23 81 236 252 251 247 248 238 238 238 235 226 210 202 193 189 178 176 170 154 151 125 159 176 156 150 171 183 188 174 141 147 162 172 122 135 136 148 169 207 223 239 241 203 158 190 122 91 162 188 230 240 238 167 89 103 104 78 97 
1 1 3 0 0 0 0 0 0 0 0 0 0 129 198 197 175 112 63 99 85 60 89 244 240 244 237 230 235 228 230 223 225 214 206 183 160 169 157 154 134 123 121 135 132 147 155 149 158 187 162 144 146 157 163 111 146 142 143 103 127 194 246 249 225 159 147 78 89 146 134 220 214 237 118 129 41 55 48 101 
1 0 0 0 0 0 0 0 0 5 0 0 6 28 190 186 154 85 66 78 60 62 101 139 185 243 235 236 218 201 194 221 203 203 188 182 161 144 148 129 134 121 123 145 118 139 136 147 178 179 110 125 147 150 115 118 154 148 145 121 100 169 247 234 241 211 149 122 89 125 119 178 191 188 161 159 92 98 102 136 
2 2 0 0 0 0 0 0 13 76 26 0 0 3 137 181 144 70 69 70 83 100 81 65 52 86 216 232 217 201 213 209 191 190 185 183 164 140 109 128 138 143 123 132 115 136 129 155 169 132 61 90 123 142 97 125 125 137 165 119 112 152 219 226 241 218 164 123 96 110 123 135 184 167 186 200 173 99 94 130 
4 5 0 0 0 0 0 0 2 38 46 9 0 4 66 143 133 78 114 95 85 61 70 39 50 55 40 83 182 179 165 151 168 169 163 169 162 141 123 129 135 140 132 126 113 115 134 152 134 86 69 78 104 128 117 140 141 160 204 160 133 160 188 206 227 249 239 136 110 106 92 135 159 172 226 127 236 75 37 45 
12 10 3 0 0 0 1 1 4 34 64 23 0 6 57 87 86 108 130 78 36 12 40 40 40 51 44 40 35 113 148 142 142 156 144 148 153 143 119 123 130 147 125 122 60 77 103 111 106 76 45 46 73 107 147 164 133 178 200 197 150 157 171 190 218 243 223 205 135 110 115 130 125 146 143 164 153 188 58 39 
19 10 4 4 0 4 1 3 21 31 36 50 9 8 75 189 149 134 101 111 67 11 34 38 31 32 47 33 34 39 70 151 121 149 116 133 162 134 115 103 122 110 107 109 63 87 95 90 117 86 40 38 82 107 161 163 159 170 172 174 175 146 156 172 200 221 207 167 166 106 105 155 154 170 211 146 184 141 149 46 
66 96 119 125 102 39 0 1 23 29 24 54 46 101 190 187 163 128 105 56 71 79 37 30 33 34 27 26 27 27 91 133 107 139 119 123 139 127 85 95 81 60 100 128 81 82 75 96 123 97 58 74 104 122 160 178 145 143 148 159 160 144 140 149 157 186 200 152 146 112 93 125 160 150 140 163 146 155 127 86 
193 191 181 160 155 145 11 0 2 19 31 40 154 208 202 184 145 158 130 66 76 98 89 45 29 32 39 48 51 51 125 120 76 128 119 118 123 118 74 96 95 76 96 127 85 55 75 104 120 84 79 89 127 130 128 163 138 122 127 138 146 107 103 121 145 153 172 149 130 94 83 109 153 155 164 192 141 138 147 133 
193 180 170 162 166 171 36 0 0 6 39 166 221 227 179 169 149 131 136 126 116 109 130 105 32 44 44 47 48 78 128 119 46 118 125 120 130 144 54 85 119 94 50 72 102 107 85 111 108 81 85 100 126 143 91 123 122 109 112 121 129 97 107 121 139 135 151 146 136 66 55 110 122 120 134 162 151 136 171 191 
147 150 153 155 149 87 2 0 0 20 191 189 189 180 207 196 143 121 78 120 133 113 113 125 55 40 34 35 32 56 105 52 23 90 128 115 136 98 35 81 104 71 58 41 99 121 78 100 89 79 86 101 120 133 103 77 94 98 100 104 100 99 105 118 123 126 145 148 154 106 51 101 116 104 160 139 143 154 134 206 
141 138 108 27 19 13 0 0 0 126 218 215 198 185 192 143 110 129 127 71 100 149 88 102 118 84 36 33 34 27 27 21 28 53 86 80 67 78 33 59 102 35 75 30 56 106 83 87 58 66 82 95 105 114 104 57 83 85 68 71 85 95 101 111 124 138 146 137 152 141 96 103 106 128 126 121 142 158 116 125 
155 156 163 32 11 8 0 0 12 193 140 123 159 217 159 128 99 98 112 67 72 126 118 63 74 76 47 40 39 33 31 29 38 21 71 87 33 89 36 41 62 38 61 33 38 57 56 47 50 55 67 81 87 79 50 55 55 58 61 75 82 89 106 121 128 133 135 141 120 134 129 87 98 92 115 107 122 138 165 33 
106 106 87 24 16 19 17 0 106 103 112 124 103 161 116 122 73 110 153 98 51 72 119 90 39 37 43 44 34 33 35 38 37 24 74 57 36 75 41 46 47 39 33 55 40 37 40 46 60 48 38 45 46 47 58 65 78 89 95 97 83 109 113 118 116 121 126 129 126 99 130 96 77 66 139 119 123 144 193 62 
0 4 48 70 34 28 21 18 154 198 185 94 127 123 70 64 76 70 139 116 64 62 39 33 31 48 39 47 38 42 46 42 36 31 55 66 48 44 41 38 34 31 31 37 45 44 46 58 69 41 36 40 49 51 66 88 100 106 120 122 97 118 118 117 116 117 116 124 118 111 97 118 68 123 172 79 125 148 175 62 
110 148 171 161 115 54 6 108 212 192 89 82 168 116 112 99 68 54 62 88 86 87 35 34 25 45 43 47 47 50 48 49 40 32 40 54 51 30 34 35 32 32 32 32 48 51 53 64 57 41 47 52 63 75 88 95 100 106 115 119 98 107 113 111 110 114 113 116 108 107 103 112 63 81 143 66 136 171 146 60 
156 164 182 197 196 131 48 189 191 71 45 125 161 138 153 149 120 118 105 47 64 56 75 50 24 48 53 50 47 47 48 57 42 27 34 44 45 29 40 36 39 34 33 33 37 42 51 42 42 65 76 88 97 102 96 98 101 103 108 115 101 104 111 112 111 120 92 105 109 109 110 104 79 76 124 100 119 125 127 70 
124 129 132 143 149 112 93 145 97 50 104 142 128 120 116 139 122 111 93 48 58 65 52 46 38 49 54 50 44 47 44 46 29 25 31 39 44 32 49 61 35 47 44 39 43 41 40 46 52 84 91 95 99 101 105 101 100 100 110 111 98 98 108 119 119 127 101 90 94 107 110 108 84 77 65 113 140 109 165 52 
113 98 81 68 78 86 88 115 91 97 129 123 148 136 96 140 127 99 66 49 92 104 74 45 33 40 51 50 37 47 41 37 25 26 27 38 42 35 59 67 26 55 52 52 49 48 52 54 55 81 90 93 94 95 101 101 102 89 101 97 95 92 102 108 113 122 123 80 53 103 107 113 58 52 56 98 156 132 148 47 
187 170 36 34 44 60 84 138 92 137 158 143 135 120 109 99 127 102 80 34 59 111 101 62 38 32 43 47 34 41 38 34 23 28 26 37 40 40 58 46 38 57 58 59 56 50 52 54 56 70 84 87 81 83 86 89 89 98 111 96 92 94 106 106 116 123 124 79 47 69 91 76 39 41 73 83 157 126 153 67 
127 146 123 69 37 33 107 125 116 153 151 157 73 91 95 79 76 102 97 49 51 67 86 61 43 32 32 41 33 38 37 32 17 28 21 37 37 41 71 31 50 58 56 60 59 55 46 55 56 58 68 70 66 71 73 77 85 99 115 109 97 101 102 111 115 119 126 71 57 71 75 60 37 41 67 80 152 120 140 56 
112 189 220 195 47 20 149 129 145 152 136 102 71 76 84 90 61 98 106 83 72 64 52 43 43 39 40 39 29 24 36 30 13 15 31 42 37 47 64 34 60 84 57 57 53 51 51 53 59 51 55 57 56 58 59 65 86 95 109 115 94 102 94 115 113 112 118 74 73 81 89 83 39 45 69 66 161 115 122 44 
156 169 181 169 48 29 162 153 136 100 53 68 79 71 70 75 104 90 91 92 72 73 62 34 44 43 45 39 32 21 36 8 5 7 40 50 44 60 48 48 67 85 87 51 59 57 56 57 51 52 52 52 61 57 60 73 86 86 99 106 82 97 83 113 112 110 118 69 71 99 96 101 49 56 72 69 166 112 114 45 
129 142 137 75 14 16 127 167 126 69 32 31 79 52 91 117 137 74 75 91 78 70 61 38 45 43 46 41 44 29 20 8 21 17 53 45 78 63 50 59 71 83 74 56 62 56 53 57 53 54 51 50 53 63 67 72 77 88 85 82 67 84 84 89 101 111 105 44 84 118 107 106 66 85 69 68 158 107 111 46 
133 129 98 43 74 13 88 177 149 64 97 123 79 40 84 139 151 95 77 81 93 79 73 41 50 47 39 35 46 40 19 18 20 51 40 82 70 66 70 69 71 64 62 74 67 57 58 56 54 48 46 47 50 60 60 62 70 79 86 91 96 76 73 70 76 92 99 39 79 112 118 105 85 74 87 70 147 105 100 63 
68 102 116 110 183 96 156 171 131 77 134 121 104 54 94 117 150 104 87 94 85 96 84 41 51 56 46 39 47 46 24 23 30 52 67 71 67 69 76 82 80 74 83 75 67 63 63 57 57 54 48 44 49 54 59 61 65 74 82 88 100 100 89 72 77 77 62 54 66 107 121 112 104 65 72 68 143 103 83 111 
46 27 97 146 184 159 194 153 103 103 124 108 105 83 72 98 143 91 79 102 83 77 79 20 42 58 52 44 52 51 34 29 39 50 77 58 73 73 78 91 77 69 68 63 65 62 61 58 59 59 57 55 55 51 55 57 56 69 81 77 102 96 87 85 85 67 50 50 89 90 119 115 108 88 64 64 139 104 75 74 
142 133 134 116 175 203 188 143 66 114 118 115 82 119 86 53 124 109 51 76 58 35 35 26 32 59 53 42 46 49 40 29 44 51 58 55 69 82 87 74 81 72 71 68 70 67 69 72 62 64 56 57 54 50 53 60 62 68 74 57 95 88 82 79 91 89 52 55 71 98 114 117 115 94 76 57 144 99 84 46 
144 157 127 81 151 202 150 131 82 131 126 81 67 127 114 91 87 111 80 57 43 43 37 31 21 42 47 33 46 49 39 22 47 50 55 55 76 108 63 81 72 77 78 73 84 76 72 77 76 64 61 59 56 47 49 54 65 70 58 59 73 82 87 68 89 92 48 51 63 107 126 123 121 92 93 53 142 87 110 82 
153 140 124 95 113 194 144 98 118 132 91 67 107 93 95 92 86 126 103 77 68 36 38 32 24 26 21 27 32 37 27 28 54 49 55 60 72 75 66 81 76 77 80 86 84 81 74 73 73 67 56 57 56 56 55 53 57 63 47 71 59 62 59 64 77 86 61 47 65 76 129 115 117 98 106 81 113 82 123 102 
127 52 53 85 86 184 149 94 140 110 109 77 106 104 92 122 124 121 117 79 83 35 31 31 21 20 17 23 30 26 25 34 57 53 54 63 73 73 95 78 74 77 83 87 83 83 74 80 68 78 66 61 61 60 57 52 56 59 55 77 64 74 65 57 64 58 62 60 48 58 71 76 87 104 112 112 104 86 67 117 
56 2 2 12 22 198 140 110 153 141 133 67 105 105 92 143 131 133 113 78 85 68 26 25 21 15 17 22 22 18 20 37 61 62 57 69 73 82 94 77 73 79 84 88 97 77 76 53 69 64 73 59 64 65 53 49 53 59 61 72 69 63 62 55 61 61 72 63 62 49 51 62 83 101 105 122 93 75 70 81 
19 8 2 1 12 185 123 78 151 142 94 91 101 100 80 106 142 143 111 85 82 97 33 21 18 15 9 15 15 12 25 42 57 57 64 72 75 88 81 77 82 85 85 85 88 93 76 69 71 70 71 61 60 62 55 57 49 54 61 67 59 63 57 70 51 70 74 65 53 47 57 71 94 103 100 115 122 89 111 80 
74 69 26 1 24 167 110 86 119 123 119 102 134 129 97 87 104 136 115 108 79 91 55 29 21 12 6 5 4 2 39 41 51 57 64 68 74 77 78 80 81 97 84 85 81 81 68 68 71 72 64 67 60 55 53 67 56 59 50 57 56 56 72 72 52 67 72 71 34 58 50 77 92 97 96 111 115 97 124 156 
121 136 71 21 24 150 101 126 139 123 117 70 152 130 106 102 72 111 125 138 80 88 75 32 19 12 5 2 1 14 37 49 60 58 68 70 71 84 72 78 80 97 95 78 79 74 60 57 65 68 62 66 59 55 55 53 54 55 39 44 54 70 77 65 39 66 70 69 44 26 57 31 88 92 94 111 116 110 154 170 
131 135 81 47 30 144 91 98 107 75 70 102 149 145 136 105 66 105 128 141 115 87 89 31 21 12 8 3 4 29 34 69 50 66 65 69 71 82 71 77 81 93 97 85 71 60 70 54 62 63 62 65 63 54 54 48 47 54 47 58 64 78 71 57 20 51 67 63 31 24 25 27 32 67 108 114 110 62 116 162 
123 150 78 67 52 133 91 97 96 132 90 124 126 171 169 97 71 96 126 137 137 94 108 31 23 15 9 5 7 38 42 50 56 71 67 76 88 97 67 76 80 89 102 101 89 42 75 59 85 68 52 71 60 55 53 51 46 50 51 51 59 69 52 43 30 70 63 51 31 25 15 41 8 46 120 99 42 34 61 115 
145 161 75 65 46 125 52 91 128 122 105 127 109 161 167 110 91 91 120 135 153 104 114 31 28 19 9 1 41 45 64 47 60 65 76 82 97 86 71 75 80 85 102 98 78 51 67 66 70 68 57 83 54 57 55 48 42 41 55 55 60 54 57 44 30 93 82 58 30 20 23 20 6 31 76 82 73 70 52 67 
102 150 69 40 33 126 62 123 185 113 114 129 112 114 131 76 109 89 111 134 151 131 115 55 31 20 5 4 68 74 80 53 53 64 73 78 82 74 67 70 82 80 94 91 75 47 47 60 60 61 57 69 51 47 52 42 46 49 52 53 59 57 59 39 28 94 95 57 30 33 49 15 22 33 68 120 97 102 105 62 
90 102 56 20 50 127 73 124 125 119 131 112 123 107 110 80 110 103 108 123 146 158 100 86 30 22 7 23 83 78 83 50 53 72 64 69 75 66 57 68 76 84 83 56 53 48 69 55 64 54 56 69 43 44 44 44 49 47 51 64 50 55 50 12 21 79 94 59 35 42 29 73 110 27 100 138 103 117 151 106 
90 92 54 9 66 120 74 150 118 125 136 118 106 114 112 81 115 113 108 118 136 156 98 103 40 26 13 50 104 72 71 49 58 72 69 63 62 64 57 67 71 82 79 36 50 54 86 60 53 65 60 58 56 54 56 54 55 55 60 60 53 59 40 7 12 63 63 33 41 20 69 112 76 43 114 130 115 90 113 75 
79 56 37 11 86 110 73 146 79 111 118 141 91 93 88 82 108 123 114 120 130 148 118 65 53 26 17 85 93 69 68 46 59 73 77 63 58 61 48 30 51 47 40 46 54 67 63 64 68 75 65 62 62 63 59 69 65 64 62 64 44 41 22 3 7 17 28 37 54 33 55 98 35 50 110 127 132 89 68 50 
153 88 86 91 175 126 65 132 85 108 107 116 114 102 73 85 110 128 122 124 127 134 123 61 60 37 18 90 70 62 72 51 58 66 77 58 57 53 41 28 19 16 34 52 61 63 57 74 79 73 70 76 71 70 65 65 71 66 62 60 49 36 15 4 6 17 30 55 23 89 65 40 51 63 122 129 146 92 44 51 
127 157 143 149 222 167 51 94 88 107 99 71 103 125 94 73 106 121 131 130 130 130 119 63 56 46 22 56 71 64 66 54 57 64 69 55 53 47 35 32 39 33 34 57 64 64 58 66 71 76 78 81 80 79 74 73 59 64 32 31 34 30 16 5 4 20 45 54 30 131 40 38 37 40 103 132 152 93 27 45 
54 174 164 188 220 198 26 70 99 105 108 78 94 132 124 63 104 112 130 134 133 127 116 66 56 47 28 44 85 61 61 54 50 53 58 53 59 74 140 140 161 148 45 40 52 52 68 61 52 55 57 57 57 68 84 61 46 43 23 28 30 28 24 8 21 34 91 54 55 64 73 64 36 23 36 112 154 81 32 16 
105 119 154 211 219 201 53 70 102 104 103 106 130 133 153 73 85 109 115 120 128 125 107 69 63 43 8 35 82 60 56 42 43 49 50 56 58 156 136 176 176 161 162 52 28 34 40 44 44 28 23 43 25 26 45 49 14 20 24 34 33 33 31 19 42 52 90 50 25 42 76 86 76 43 12 73 122 46 26 19 
149 110 142 204 191 169 138 34 88 94 87 102 160 138 154 112 60 99 103 95 112 140 76 75 68 45 12 52 80 60 49 41 47 55 49 62 147 198 144 133 183 181 173 209 51 12 2 24 59 44 35 56 80 43 97 84 16 7 15 31 26 25 28 28 32 92 95 45 47 37 62 77 76 62 23 35 44 19 34 44 
94 139 164 190 173 213 198 45 107 91 86 113 158 168 136 143 62 70 86 81 96 86 83 83 72 41 12 71 95 56 50 40 48 50 72 152 175 165 100 122 173 188 163 177 113 11 20 36 50 39 57 98 123 58 116 101 40 39 41 30 20 15 22 33 58 90 57 72 72 62 44 61 68 71 48 50 31 2 19 49 
140 127 112 158 173 176 114 50 91 121 126 124 145 168 127 143 74 61 70 86 96 84 89 89 62 48 13 74 92 55 53 42 43 53 160 188 122 102 70 65 173 176 181 119 194 143 148 146 131 115 95 127 162 152 136 136 95 101 109 103 115 139 143 112 81 90 77 92 93 90 64 30 36 46 19 16 13 9 1 14 
74 93 95 99 107 59 16 77 121 121 126 124 133 156 124 138 101 57 68 83 109 81 89 91 59 50 8 79 92 77 79 37 37 86 153 117 130 119 125 148 135 167 191 113 172 157 129 129 122 116 96 128 171 147 133 145 92 113 108 110 109 115 115 129 130 145 150 166 164 129 114 37 33 50 20 10 9 13 3 0 
28 47 81 87 88 36 18 73 157 118 130 118 126 143 122 118 144 64 75 86 100 77 86 69 62 25 7 47 104 107 89 60 96 155 168 183 188 183 189 151 109 135 170 131 170 184 128 130 128 120 106 83 159 196 134 104 116 110 111 111 115 116 133 127 127 141 138 138 143 186 178 96 51 57 33 19 11 9 1 0 
144 157 76 100 136 74 20 54 127 104 123 112 119 130 129 108 144 81 81 86 101 72 66 52 36 5 9 14 68 121 161 162 168 196 203 165 135 152 146 140 117 141 141 129 132 138 138 137 132 131 114 131 129 113 142 116 121 126 130 129 130 136 129 131 132 131 134 137 149 153 155 144 169 157 88 82 30 12 1 0 
107 97 85 94 126 37 2 36 85 103 96 105 114 114 141 100 131 96 83 88 102 88 67 20 22 15 40 104 163 175 185 188 183 159 156 142 136 148 149 139 98 109 118 129 60 101 115 105 90 75 58 43 77 92 127 136 58 64 69 81 95 107 117 128 142 150 145 148 140 138 132 137 147 157 180 152 43 5 0 0 
102 73 95 122 146 131 28 29 80 90 80 93 104 101 147 92 110 102 74 90 102 94 96 76 36 138 181 176 182 221 180 154 148 146 141 150 154 150 148 142 113 116 141 106 28 40 32 36 35 22 44 51 38 63 154 129 16 19 23 33 21 33 46 70 80 87 112 138 147 150 147 146 136 140 143 163 188 102 7 1 
141 81 56 101 170 179 134 39 79 112 70 77 85 93 140 92 100 109 37 61 90 93 100 162 185 186 206 196 182 152 154 148 149 147 155 157 154 141 113 72 41 92 130 106 45 27 36 44 38 57 65 45 33 72 146 97 17 22 32 33 17 30 55 68 65 51 56 62 71 107 133 155 150 143 140 139 138 160 158 72 
182 141 78 72 144 205 150 40 99 110 83 69 68 80 120 110 99 123 33 61 93 143 192 189 194 205 179 159 142 149 146 151 154 149 144 121 95 71 47 28 11 93 133 178 84 25 33 34 48 93 48 44 36 80 131 33 18 27 36 17 26 48 55 82 81 60 14 27 47 47 62 88 120 145 149 143 141 142 144 170 
188 174 120 82 98 183 167 49 101 122 117 50 63 84 101 109 104 136 45 134 194 192 203 212 183 146 149 151 145 145 150 154 135 97 75 97 96 78 56 50 15 68 156 164 112 29 27 36 95 108 51 38 12 41 14 17 20 30 28 22 33 58 62 84 102 48 35 72 70 58 67 67 53 76 115 142 150 143 137 138 
164 194 143 41 105 167 190 89 102 137 147 59 44 78 84 86 102 140 170 199 199 219 190 169 152 143 148 152 150 148 123 86 85 54 41 103 93 86 69 57 42 35 72 42 118 66 49 83 155 81 16 21 16 3 13 18 27 32 13 24 53 59 78 95 90 33 86 90 82 93 94 94 97 77 53 73 112 139 148 138 
66 146 106 7 35 142 187 64 103 152 171 97 42 33 60 67 160 204 194 209 218 156 135 136 142 151 160 149 126 94 103 53 91 55 37 68 88 88 77 59 59 53 47 35 71 117 141 151 103 32 14 18 16 7 13 21 30 20 18 46 61 56 92 86 30 49 114 103 94 109 108 100 105 120 118 60 51 83 126 147 
43 24 23 4 4 33 70 14 85 153 160 144 82 53 97 186 201 202 225 187 148 131 139 145 151 152 123 96 25 85 99 52 90 52 35 41 93 79 85 72 68 73 71 37 47 70 78 79 83 16 16 24 19 9 15 27 28 15 31 55 57 36 57 48 0 83 122 115 112 118 117 105 92 119 125 127 106 53 57 95 
